<svg id="visual" viewBox="0 0 900 300" width="900" height="300" xmlns="http://www.w3.org/2000/svg" xmlns:xlink="http://www.w3.org/1999/xlink" version="1.1"><path d="M0 134L12.5 128.7C25 123.3 50 112.7 75 112.7C100 112.7 125 123.3 150 125.7C175 128 200 122 225 118.7C250 115.3 275 114.7 300 119.8C325 125 350 136 375 134.7C400 133.3 425 119.7 450 117.8C475 116 500 126 525 128.8C550 131.7 575 127.3 600 123.7C625 120 650 117 675 111.8C700 106.7 725 99.3 750 100.5C775 101.7 800 111.3 825 112C850 112.7 875 104.3 887.5 100.2L900 96L900 301L887.5 301C875 301 850 301 825 301C800 301 775 301 750 301C725 301 700 301 675 301C650 301 625 301 600 301C575 301 550 301 525 301C500 301 475 301 450 301C425 301 400 301 375 301C350 301 325 301 300 301C275 301 250 301 225 301C200 301 175 301 150 301C125 301 100 301 75 301C50 301 25 301 12.5 301L0 301Z" fill="#009473"></path><path d="M0 125L12.5 131.3C25 137.7 50 150.3 75 149.8C100 149.3 125 135.7 150 129.3C175 123 200 124 225 131.5C250 139 275 153 300 155.3C325 157.7 350 148.3 375 141.5C400 134.7 425 130.3 450 132.7C475 135 500 144 525 146.2C550 148.3 575 143.7 600 142.3C625 141 650 143 675 149.5C700 156 725 167 750 166C775 165 800 152 825 151.3C850 150.7 875 162.3 887.5 168.2L900 174L900 301L887.5 301C875 301 850 301 825 301C800 301 775 301 750 301C725 301 700 301 675 301C650 301 625 301 600 301C575 301 550 301 525 301C500 301 475 301 450 301C425 301 400 301 375 301C350 301 325 301 300 301C275 301 250 301 225 301C200 301 175 301 150 301C125 301 100 301 75 301C50 301 25 301 12.5 301L0 301Z" fill="#079e7a"></path><path d="M0 203L12.5 198.8C25 194.7 50 186.3 75 183.7C100 181 125 184 150 181C175 178 200 169 225 163.7C250 158.3 275 156.7 300 155.8C325 155 350 155 375 161.8C400 168.7 425 182.3 450 186.7C475 191 500 186 525 186.7C550 187.3 575 193.7 600 189.2C625 184.7 650 169.3 675 161C700 152.7 725 151.3 750 159.2C775 167 800 184 825 185.3C850 186.7 875 172.3 887.5 165.2L900 158L900 301L887.5 301C875 301 850 301 825 301C800 301 775 301 750 301C725 301 700 301 675 301C650 301 625 301 600 301C575 301 550 301 525 301C500 301 475 301 450 301C425 301 400 301 375 301C350 301 325 301 300 301C275 301 250 301 225 301C200 301 175 301 150 301C125 301 100 301 75 301C50 301 25 301 12.5 301L0 301Z" fill="#0fa881"></path><path d="M0 184L12.5 188.7C25 193.3 50 202.7 75 205.5C100 208.3 125 204.7 150 206.2C175 207.7 200 214.3 225 212.2C250 210 275 199 300 193.2C325 187.3 350 186.7 375 188.7C400 190.7 425 195.3 450 202.8C475 210.3 500 220.7 525 218.8C550 217 575 203 600 196C625 189 650 189 675 191C700 193 725 197 750 203.8C775 210.7 800 220.3 825 224.7C850 229 875 228 887.5 227.5L900 227L900 301L887.5 301C875 301 850 301 825 301C800 301 775 301 750 301C725 301 700 301 675 301C650 301 625 301 600 301C575 301 550 301 525 301C500 301 475 301 450 301C425 301 400 301 375 301C350 301 325 301 300 301C275 301 250 301 225 301C200 301 175 301 150 301C125 301 100 301 75 301C50 301 25 301 12.5 301L0 301Z" fill="#17b289"></path><path d="M0 252L12.5 245.5C25 239 50 226 75 224.5C100 223 125 233 150 236.8C175 240.7 200 238.3 225 233.8C250 229.3 275 222.7 300 226C325 229.3 350 242.7 375 247C400 251.3 425 246.7 450 246.8C475 247 500 252 525 249.7C550 247.3 575 237.7 600 230.7C625 223.7 650 219.3 675 219.2C700 219 725 223 750 229C775 235 800 243 825 247.3C850 251.7 875 252.3 887.5 252.7L900 253L900 301L887.5 301C875 301 850 301 825 301C800 301 775 301 750 301C725 301 700 301 675 301C650 301 625 301 600 301C575 301 550 301 525 301C500 301 475 301 450 301C425 301 400 301 375 301C350 301 325 301 300 301C275 301 250 301 225 301C200 301 175 301 150 301C125 301 100 301 75 301C50 301 25 301 12.5 301L0 301Z" fill="#1dbd90"></path><path d="M0 285L12.5 283C25 281 50 277 75 271.8C100 266.7 125 260.3 150 260.5C175 260.7 200 267.3 225 270.3C250 273.3 275 272.7 300 273.2C325 273.7 350 275.3 375 276C400 276.7 425 276.3 450 275.2C475 274 500 272 525 269.7C550 267.3 575 264.7 600 264.3C625 264 650 266 675 268.5C700 271 725 274 750 276.3C775 278.7 800 280.3 825 279.5C850 278.7 875 275.3 887.5 273.7L900 272L900 301L887.5 301C875 301 850 301 825 301C800 301 775 301 750 301C725 301 700 301 675 301C650 301 625 301 600 301C575 301 550 301 525 301C500 301 475 301 450 301C425 301 400 301 375 301C350 301 325 301 300 301C275 301 250 301 225 301C200 301 175 301 150 301C125 301 100 301 75 301C50 301 25 301 12.5 301L0 301Z" fill="#24c798"></path></svg>