<svg xmlns="http://www.w3.org/2000/svg" version="1.1" xmlns:xlink="http://www.w3.org/1999/xlink" xmlns:svgjs="http://svgjs.com/svgjs" width="1440" height="560" preserveAspectRatio="none" viewBox="0 0 1440 560"><g mask="url(&quot;#SvgjsMask2429&quot;)" fill="none"><rect width="1440" height="560" x="0" y="0" fill="url(#SvgjsLinearGradient2430)"></rect><path d="M551 340L736 155" stroke-width="8" stroke="url(#SvgjsLinearGradient2431)" stroke-linecap="round" class="TopRight"></path><path d="M609 442L298 753" stroke-width="10" stroke="url(#SvgjsLinearGradient2431)" stroke-linecap="round" class="TopRight"></path><path d="M531 30L190 371" stroke-width="6" stroke="url(#SvgjsLinearGradient2431)" stroke-linecap="round" class="TopRight"></path><path d="M96 484L340 240" stroke-width="8" stroke="url(#SvgjsLinearGradient2432)" stroke-linecap="round" class="BottomLeft"></path><path d="M262 123L87 298" stroke-width="6" stroke="url(#SvgjsLinearGradient2431)" stroke-linecap="round" class="TopRight"></path><path d="M282 154L506 -70" stroke-width="10" stroke="url(#SvgjsLinearGradient2431)" stroke-linecap="round" class="TopRight"></path><path d="M646 44L1015 -325" stroke-width="10" stroke="url(#SvgjsLinearGradient2431)" stroke-linecap="round" class="TopRight"></path><path d="M98 62L-137 297" stroke-width="6" stroke="url(#SvgjsLinearGradient2431)" stroke-linecap="round" class="TopRight"></path><path d="M763 60L344 479" stroke-width="6" stroke="url(#SvgjsLinearGradient2432)" stroke-linecap="round" class="BottomLeft"></path><path d="M1161 319L1546 -66" stroke-width="10" stroke="url(#SvgjsLinearGradient2432)" stroke-linecap="round" class="BottomLeft"></path><path d="M835 274L686 423" stroke-width="8" stroke="url(#SvgjsLinearGradient2431)" stroke-linecap="round" class="TopRight"></path><path d="M1006 532L1156 382" stroke-width="10" stroke="url(#SvgjsLinearGradient2431)" stroke-linecap="round" class="TopRight"></path><path d="M473 153L885 -259" stroke-width="10" stroke="url(#SvgjsLinearGradient2432)" stroke-linecap="round" class="BottomLeft"></path><path d="M939 242L1301 -120" stroke-width="6" stroke="url(#SvgjsLinearGradient2432)" stroke-linecap="round" class="BottomLeft"></path><path d="M1357 41L1596 -198" stroke-width="10" stroke="url(#SvgjsLinearGradient2432)" stroke-linecap="round" class="BottomLeft"></path><path d="M349 51L-52 452" stroke-width="8" stroke="url(#SvgjsLinearGradient2431)" stroke-linecap="round" class="TopRight"></path><path d="M826 411L1203 34" stroke-width="6" stroke="url(#SvgjsLinearGradient2431)" stroke-linecap="round" class="TopRight"></path><path d="M717 409L934 192" stroke-width="6" stroke="url(#SvgjsLinearGradient2432)" stroke-linecap="round" class="BottomLeft"></path><path d="M879 57L646 290" stroke-width="8" stroke="url(#SvgjsLinearGradient2432)" stroke-linecap="round" class="BottomLeft"></path><path d="M291 530L445 376" stroke-width="8" stroke="url(#SvgjsLinearGradient2432)" stroke-linecap="round" class="BottomLeft"></path><path d="M1060 406L1399 67" stroke-width="8" stroke="url(#SvgjsLinearGradient2432)" stroke-linecap="round" class="BottomLeft"></path><path d="M666 271L1022 -85" stroke-width="8" stroke="url(#SvgjsLinearGradient2431)" stroke-linecap="round" class="TopRight"></path><path d="M97 532L-145 774" stroke-width="10" stroke="url(#SvgjsLinearGradient2431)" stroke-linecap="round" class="TopRight"></path><path d="M489 127L805 -189" stroke-width="6" stroke="url(#SvgjsLinearGradient2431)" stroke-linecap="round" class="TopRight"></path><path d="M1354 126L1063 417" stroke-width="6" stroke="url(#SvgjsLinearGradient2431)" stroke-linecap="round" class="TopRight"></path><path d="M551 467L761 257" stroke-width="10" stroke="url(#SvgjsLinearGradient2431)" stroke-linecap="round" class="TopRight"></path><path d="M39 380L-224 643" stroke-width="10" stroke="url(#SvgjsLinearGradient2432)" stroke-linecap="round" class="BottomLeft"></path><path d="M1363 52L1605 -190" stroke-width="8" stroke="url(#SvgjsLinearGradient2432)" stroke-linecap="round" class="BottomLeft"></path><path d="M189 243L588 -156" stroke-width="8" stroke="url(#SvgjsLinearGradient2431)" stroke-linecap="round" class="TopRight"></path><path d="M664 433L389 708" stroke-width="8" stroke="url(#SvgjsLinearGradient2432)" stroke-linecap="round" class="BottomLeft"></path><path d="M1156 338L1427 67" stroke-width="10" stroke="url(#SvgjsLinearGradient2432)" stroke-linecap="round" class="BottomLeft"></path><path d="M846 259L507 598" stroke-width="8" stroke="url(#SvgjsLinearGradient2432)" stroke-linecap="round" class="BottomLeft"></path><path d="M759 362L501 620" stroke-width="8" stroke="url(#SvgjsLinearGradient2431)" stroke-linecap="round" class="TopRight"></path><path d="M1157 398L739 816" stroke-width="10" stroke="url(#SvgjsLinearGradient2432)" stroke-linecap="round" class="BottomLeft"></path><path d="M303 73L565 -189" stroke-width="6" stroke="url(#SvgjsLinearGradient2431)" stroke-linecap="round" class="TopRight"></path><path d="M1220 501L1604 117" stroke-width="6" stroke="url(#SvgjsLinearGradient2431)" stroke-linecap="round" class="TopRight"></path><path d="M850 430L674 606" stroke-width="10" stroke="url(#SvgjsLinearGradient2431)" stroke-linecap="round" class="TopRight"></path><path d="M15 153L298 -130" stroke-width="6" stroke="url(#SvgjsLinearGradient2431)" stroke-linecap="round" class="TopRight"></path><path d="M1009 216L1389 -164" stroke-width="10" stroke="url(#SvgjsLinearGradient2431)" stroke-linecap="round" class="TopRight"></path></g><defs><mask id="SvgjsMask2429"><rect width="1440" height="560" fill="#ffffff"></rect></mask><linearGradient x1="0%" y1="50%" x2="100%" y2="50%" gradientUnits="userSpaceOnUse" id="SvgjsLinearGradient2430"><stop stop-color="#0e2a47" offset="0"></stop><stop stop-color="rgba(113, 243, 204, 1)" offset="1"></stop></linearGradient><linearGradient x1="0%" y1="100%" x2="100%" y2="0%" id="SvgjsLinearGradient2431"><stop stop-color="rgba(28, 83, 142, 0)" offset="0"></stop><stop stop-color="#1c538e" offset="1"></stop></linearGradient><linearGradient x1="100%" y1="0%" x2="0%" y2="100%" id="SvgjsLinearGradient2432"><stop stop-color="rgba(28, 83, 142, 0)" offset="0"></stop><stop stop-color="#1c538e" offset="1"></stop></linearGradient></defs></svg>