<svg xmlns="http://www.w3.org/2000/svg" xmlns:xlink="http://www.w3.org/1999/xlink" xmlns:fi="http://pattern.flaticon.com/" x="0" y="0" width="700" height="350" viewBox="0 0 700 350"><rect x="0px" y="0px" width="100%" height="100%" opacity="1" fill="#ffffff"/><defs><g transform="matrix(0.09513933211565018 0 0 0.09513933211565018 159.64427016126888 44.64975506948451)" id="L1_0"><path d="M244.153,192.247V43.069c0-8.893,7.209-16.102,16.102-16.102h212.539  c8.893,0,16.102,7.209,16.102,16.102v149.178c0,8.893-7.209,16.102-16.102,16.102H260.256  C251.362,208.349,244.153,201.14,244.153,192.247z" fill="#46738c"/><path d="M256.591,154.414c-2.366,0-4.708-1.044-6.286-3.046c-2.734-3.469-2.14-8.498,1.329-11.233  l65.56-51.694c3.47-2.735,8.499-2.14,11.233,1.329c2.734,3.469,2.14,8.498-1.329,11.233l-65.56,51.694  C260.069,153.852,258.324,154.414,256.591,154.414z" fill="#ff8c46"/><circle cx="128" cy="36" r="34" fill="#ffb69e"/><path d="M152.44,426.88c-11.198,0-20.275-9.078-20.275-20.275V244.544c0-11.198,9.078-20.275,20.275-20.275  s20.275,9.078,20.275,20.275v162.061C172.716,417.802,163.638,426.88,152.44,426.88z" fill="#343e6b"/><path d="M103.496,426.88c-11.198,0-20.275-9.078-20.275-20.275V244.544c0-11.198,9.078-20.275,20.275-20.275  s20.275,9.078,20.275,20.275v162.061C123.772,417.802,114.694,426.88,103.496,426.88z" fill="#414b82"/><path d="M270.633,137.566c-4.897-7.887-15.259-10.311-23.147-5.415l-34.045,21.138v-31.431  c-0.109-21.824-18.112-39.58-39.937-39.58h-0.622c-10.746,0-79.151,0-90.268,0c-22.28,0-40.497,17.847-40.607,39.783  c0,0.028,0,0.057,0,0.085v124.128c0,9.331,7.565,16.896,16.896,16.896s16.896-7.565,16.896-16.896V122.203  c0.036-3.213,3.275-6.132,6.815-6.132h0.608v128.474h89.495c0-11.978,0-115.178,0-128.646c0.09,0,0.878,0,0.788,0  c3.38,0,6.453,2.75,6.47,6.13v61.475c0.066,13.163,14.554,21.102,25.676,14.197l59.571-36.986  C273.106,155.816,275.529,145.453,270.633,137.566z" fill="#252d5c"/><path d="M270.633,137.566c-4.897-7.887-15.259-10.311-23.147-5.415l-34.045,21.138v-31.431  c-0.109-21.824-18.112-39.58-39.937-39.58c-5.771,0-39.991,0-45.541,0v162.265h44.753c0-11.978,0-115.178,0-128.646  c0.09,0,0.878,0,0.788,0c3.38,0,6.453,2.75,6.47,6.13v61.475c0.066,13.163,14.554,21.102,25.676,14.197l59.571-36.986  C273.106,155.816,275.529,145.453,270.633,137.566z" fill="#1b224a"/><path d="M270.633,137.566c-4.897-7.887-15.259-10.311-23.147-5.415l17.733,28.562  C273.106,155.816,275.529,145.453,270.633,137.566z" fill="#ffb69e"/><g><rect x="236px" y="144px" width="33px" height="7px" transform="matrix(-0.5226 -0.8526 0.8526 -0.5226 259.3598 441.7484)" fill="#ffffff"/><path d="M42.001,237.56v8.715c0,9.331,7.565,16.896,16.896,16.896s16.896-7.565,16.896-16.896v-8.715   L42.001,237.56L42.001,237.56z" fill="#ffffff"/></g><path d="M42.001,245.84v0.435c0,9.331,7.565,16.896,16.896,16.896s16.896-7.565,16.896-16.896v-0.435  L42.001,245.84L42.001,245.84z" fill="#ffb69e"/><path d="M102.183,82.278 127.963,149.934 153.75,82.278z" fill="#ffffff"/><path d="M139.176,105.31l-5.727-10.416l4.936-8.977c0.898-1.633-0.285-3.637-2.151-3.637h-16.547  c-1.864,0-3.05,2.002-2.151,3.637l4.953,9.007l-5.711,10.388c-0.791,1.439-1.048,3.109-0.726,4.719l3.523,17.884l8.388,22.021  l8.396-22.024l3.543-17.879C140.225,108.421,139.967,106.749,139.176,105.31z" fill="#ff3c3c"/><rect x="140px" y="134px" width="22px" height="6px" fill="#252d5c"/><g><circle cx="429" cy="328" r="33" fill="#80391b"/><path d="M472.996,372.929c-9.989,0-78.063,0-88.05,0c-21.294,0-38.897,17.324-39.004,38.618v38.035h32.803   v-37.871c0.016-3.298,2.903-5.981,6.201-5.981h0.323v43.851h86.874v-43.851h0.854c3.298,0,6.184,2.683,6.201,5.981v37.871H512   v-38.035C511.893,390.254,494.292,372.929,472.996,372.929z" fill="#80391b"/></g><path d="M472.996,372.929H446.11c-10.47,8.301-24.214,7.978-33.761,0h-27.402  c-21.294,0-38.897,17.324-39.004,38.618v23.873h32.803v-23.708c0.016-3.298,2.903-5.981,6.201-5.981h0.323v43.851h86.874v-43.851  h0.854c3.298,0,6.184,2.683,6.201,5.981v23.708h32.803v-23.873C511.893,390.254,494.292,372.929,472.996,372.929z" fill="#55c7a6"/><g><circle cx="256" cy="328" r="33" fill="#ffb69e"/><path d="M300.039,372.929c-9.989,0-78.063,0-88.05,0c-21.294,0-38.897,17.324-39.004,38.618v38.035h32.803   v-37.871c0.016-3.298,2.903-5.981,6.201-5.981h0.323v43.851h86.874v-43.851h0.854c3.298,0,6.184,2.683,6.201,5.981v37.871h32.803   v-38.035C338.937,390.254,321.334,372.929,300.039,372.929z" fill="#ffb69e"/></g><path d="M300.039,372.929h-28.227c-10.47,8.301-24.214,7.978-33.761,0H211.99  c-21.294,0-38.897,17.324-39.004,38.618v23.873h32.803v-23.708c0.016-3.298,2.903-5.981,6.201-5.981h0.323v43.851h86.874v-43.851  h0.854c3.298,0,6.184,2.683,6.201,5.981v23.708h32.803v-23.873C338.937,390.254,321.334,372.929,300.039,372.929z" fill="#252d5c"/><g><circle cx="83" cy="327" r="33" fill="#ffb69e"/><path d="M127.054,372.387c-9.989,0-78.063,0-88.05,0c-21.294,0-38.897,17.324-39.004,38.618v38.036h32.803   v-37.871c0.016-3.298,2.903-5.981,6.201-5.981h0.323v43.851H126.2v-43.852h0.854c3.298,0,6.184,2.683,6.201,5.981v37.871h32.803   v-38.036C165.951,389.711,148.348,372.387,127.054,372.387z" fill="#ffb69e"/></g><path d="M127.054,372.387H98.826c-10.47,8.301-24.214,7.978-33.761,0H39.004  c-21.294,0-38.897,17.324-39.004,38.618v23.873h32.803v-23.708c0.016-3.298,2.903-5.981,6.201-5.981h0.323v43.851H126.2v-43.852  h0.854c3.298,0,6.184,2.683,6.201,5.981v23.708h32.803v-23.873C165.951,389.711,148.348,372.387,127.054,372.387z" fill="#78beff"/><g><circle cx="352" cy="389" r="33" fill="#ffb69e"/><path d="M396.153,433.843c-9.989,0-78.063,0-88.05,0c-21.294,0-38.897,17.324-39.004,38.618v38.035h32.803   v-37.871c0.016-3.298,2.903-5.981,6.201-5.981h0.323v43.851h86.874v-43.851h0.854c3.298,0,6.184,2.683,6.201,5.981v37.871h32.803   v-38.035C435.049,451.166,417.447,433.843,396.153,433.843z" fill="#ffb69e"/></g><path d="M396.153,433.843h-26.886c-10.47,8.301-24.214,7.978-33.761,0h-27.402  c-21.294,0-38.897,17.324-39.004,38.618v23.873h32.803v-23.708c0.016-3.298,2.903-5.981,6.201-5.981h0.323v43.851H395.3v-43.851  h0.854c3.298,0,6.184,2.683,6.201,5.981v23.708h32.803v-23.873C435.049,451.166,417.447,433.843,396.153,433.843z" fill="#78beff"/><g><circle cx="179" cy="389" r="33" fill="#ba6746"/><path d="M223.196,433.843c-9.989,0-78.063,0-88.05,0c-21.294,0-38.897,17.324-39.004,38.618v38.035h32.803   v-37.871c0.016-3.298,2.903-5.981,6.201-5.981h0.323v43.851h86.874v-43.851h0.854c3.298,0,6.184,2.683,6.201,5.981v37.871H262.2   v-38.035C262.092,451.166,244.491,433.843,223.196,433.843z" fill="#ba6746"/></g><path d="M223.196,433.843h-28.227c-10.47,8.301-24.214,7.978-33.761,0h-26.062  c-21.294,0-38.897,17.324-39.004,38.618v23.873h32.803v-23.708c0.016-3.298,2.903-5.981,6.201-5.981h0.323v43.851h86.874v-43.851  h0.854c3.298,0,6.184,2.683,6.201,5.981v23.708h32.803v-23.873C262.092,451.166,244.491,433.843,223.196,433.843z" fill="#ff3c3c"/></g><g transform="matrix(0.09666014462709427 0 0 0.09666014462709427 216.24352254535665 152.23950719072843)" id="L1_1"><path d="m463.177 392.818h-414.157c-18.789 0-34.02-15.231-34.02-34.02v-309.19c0-18.789 15.231-34.02 34.02-34.02h414.157c18.789 0 34.02 15.231 34.02 34.02v309.19c0 18.788-15.232 34.02-34.02 34.02z" fill="#cceeff"/><path d="m463.177 15.588h-207.133v377.23h207.133c18.789 0 34.02-15.231 34.02-34.02v-309.19c0-18.789-15.232-34.02-34.02-34.02z" fill="#ff405c"/><path d="m15 204.203v154.595c0 18.789 15.231 34.02 34.02 34.02h414.156c18.789 0 34.02-15.231 34.02-34.02v-154.595z" fill="#ffffff"/><path d="m256.044 204.203v188.615h207.133c18.789 0 34.02-15.231 34.02-34.02v-154.595z" fill="#00215a"/><path d="m173.041 496.694 16.31-103.876h132.903l14.638 103.864z" fill="#004db6"/><path d="m256.044 496.694 80.848-.006-14.638-103.864h-66.21z" fill="#192b80"/><path d="m374.747 511.608h-237.298c-8.284 0-15-6.716-15-15s6.716-15 15-15h237.298c8.284 0 15 6.716 15 15s-6.716 15-15 15z" fill="#0089ff"/><path d="m374.747 481.608h-118.703v30h118.703c8.284 0 15-6.716 15-15s-6.716-15-15-15z" fill="#295fcc"/><circle cx="373" cy="286" r="34" fill="#ffa64d"/><path d="m373.119 252.019v69.262c19.126 0 34.631-15.505 34.631-34.631s-15.505-34.631-34.631-34.631z" fill="#ff9933"/><path d="m395.598 326.637h-45.439l-.002.007c-19.182.151-34.686 15.741-34.686 34.959v7.85c0 5.057 4.099 9.156 9.156 9.156h96.781c5.057 0 9.156-4.099 9.156-9.156v-7.85c0-19.311-15.655-34.966-34.966-34.966z" fill="#7affe4"/><path d="m395.598 326.637h-22.48v51.972h48.29c5.057 0 9.156-4.099 9.156-9.156v-7.85c0-19.311-15.655-34.966-34.966-34.966z" fill="#00ecce"/><circle cx="139" cy="286" r="34" fill="#ffcc99"/><path d="m139.695 252.019v69.262c19.126 0 34.631-15.505 34.631-34.631s-15.505-34.631-34.631-34.631z" fill="#ffb366"/><path d="m162.174 326.637h-45.439l-.002.007c-19.182.151-34.686 15.741-34.686 34.959v7.85c0 5.057 4.099 9.156 9.156 9.156h96.781c5.057 0 9.156-4.099 9.156-9.156v-7.85c0-19.311-15.655-34.966-34.966-34.966z" fill="#ff9100"/><path d="m162.174 326.637h-22.48v51.972h48.29c5.057 0 9.156-4.099 9.156-9.156v-7.85c0-19.311-15.655-34.966-34.966-34.966z" fill="#ff641a"/><circle cx="373" cy="112" r="34" fill="#ffa64d"/><path d="m373.119 77.599v69.262c19.126 0 34.631-15.505 34.631-34.631s-15.505-34.631-34.631-34.631z" fill="#ff9933"/><path d="m395.598 152.217h-45.439l-.002.007c-19.182.151-34.686 15.741-34.686 34.959v7.85c0 5.057 4.099 9.156 9.156 9.156h96.781c5.057 0 9.156-4.099 9.156-9.156v-7.85c0-19.311-15.655-34.966-34.966-34.966z" fill="#ffda2d"/><path d="m395.598 152.217h-22.48v51.972h48.29c5.057 0 9.156-4.099 9.156-9.156v-7.85c0-19.311-15.655-34.966-34.966-34.966z" fill="#fdbf00"/><circle cx="139" cy="112" r="34" fill="#ffcc99"/><path d="m139.695 77.599v69.262c19.126 0 34.631-15.505 34.631-34.631s-15.505-34.631-34.631-34.631z" fill="#ffb366"/><path d="m162.174 152.217h-45.439l-.002.007c-19.182.151-34.686 15.741-34.686 34.959v7.85c0 5.057 4.099 9.156 9.156 9.156h96.781c5.057 0 9.156-4.099 9.156-9.156v-7.85c0-19.311-15.655-34.966-34.966-34.966z" fill="#ff405c"/><path d="m162.174 152.217h-22.48v51.972h48.29c5.057 0 9.156-4.099 9.156-9.156v-7.85c0-19.311-15.655-34.966-34.966-34.966z" fill="#c1126b"/><path d="m467.141 407.818h-422.085c-24.884 0-45.056-20.172-45.056-45.056v-317.119c0-24.883 20.172-45.055 45.056-45.055h422.086c24.883 0 45.055 20.172 45.055 45.055v317.12c-.001 24.883-20.173 45.055-45.056 45.055zm-422.085-377.23c-8.315 0-15.056 6.74-15.056 15.055v317.119c0 8.315 6.741 15.056 15.056 15.056h422.085c8.315 0 15.056-6.741 15.056-15.056v-317.119c0-8.315-6.741-15.056-15.056-15.056h-422.085z" fill="#0089ff"/><path d="m470.919.588h-214.875v30h214.875c6.228 0 11.277 5.049 11.277 11.277v319.954c0 8.836-7.163 15.999-15.999 15.999h-210.153v30h214.875c22.797 0 41.277-18.48 41.277-41.277v-324.676c0-22.797-18.48-41.277-41.277-41.277z" fill="#295fcc"/></g><g transform="matrix(0.10621679574251175 0 0 0.10621679574251175 79.75495368830616 285.808500289917)" id="L1_2"><path d="m32.5 16h352c17.671875 0 32 14.328125 32 32v432c0 17.671875-14.328125 32-32 32h-352c-17.671875 0-32-14.328125-32-32v-432c0-17.671875 14.328125-32 32-32zm0 0" fill="#ecce93"/><path d="m32.5 374.625v-326.625h352v432h-246.625zm0 0" fill="#e4edfb"/><path d="m137.875 374.625v105.375l-105.375-105.375zm0 0" fill="#e76e54"/><path d="m128.5 64v-64h160v64c0 17.671875-14.328125 32-32 32h-96c-17.671875 0-32-14.328125-32-32zm0 0" fill="#e76e54"/><path d="m385.476562 36.511719-193.535156 193.519531-30.160156 120.6875 120.671875-30.160156 193.519531-193.535156zm0 0" fill="#48c8ef"/><path d="m191.941406 230.03125-30.160156 120.6875 120.671875-30.160156zm0 0" fill="#ecce93"/><path d="m443.988281 159.023438-90.511719-90.511719 45.246094-45.246094c12.496094-12.492187 32.753906-12.492187 45.25 0l45.261719 45.246094c12.503906 12.5 12.503906 32.765625 0 45.265625zm0 0" fill="#e4edfb"/></g></defs><g fi:class="KUsePattern"><pattern id="pattern_L1_0" width="350" height="350" patternUnits="userSpaceOnUse"><use xlink:href="#L1_0" x="-350" y="-350"/><use xlink:href="#L1_0" x="0" y="-350"/><use xlink:href="#L1_0" x="350" y="-350"/><use xlink:href="#L1_0" x="-350" y="0"/><use xlink:href="#L1_0" x="0" y="0"/><use xlink:href="#L1_0" x="350" y="0"/><use xlink:href="#L1_0" x="-350" y="350"/><use xlink:href="#L1_0" x="0" y="350"/><use xlink:href="#L1_0" x="350" y="350"/></pattern><rect x="0" y="0" width="100%" height="100%" fill="url(#pattern_L1_0)"/></g><g fi:class="KUsePattern"><pattern id="pattern_L1_1" width="350" height="350" patternUnits="userSpaceOnUse"><use xlink:href="#L1_1" x="-350" y="-350"/><use xlink:href="#L1_1" x="0" y="-350"/><use xlink:href="#L1_1" x="350" y="-350"/><use xlink:href="#L1_1" x="-350" y="0"/><use xlink:href="#L1_1" x="0" y="0"/><use xlink:href="#L1_1" x="350" y="0"/><use xlink:href="#L1_1" x="-350" y="350"/><use xlink:href="#L1_1" x="0" y="350"/><use xlink:href="#L1_1" x="350" y="350"/></pattern><rect x="0" y="0" width="100%" height="100%" fill="url(#pattern_L1_1)"/></g><g fi:class="KUsePattern"><pattern id="pattern_L1_2" width="350" height="350" patternUnits="userSpaceOnUse"><use xlink:href="#L1_2" x="-350" y="-350"/><use xlink:href="#L1_2" x="0" y="-350"/><use xlink:href="#L1_2" x="350" y="-350"/><use xlink:href="#L1_2" x="-350" y="0"/><use xlink:href="#L1_2" x="0" y="0"/><use xlink:href="#L1_2" x="350" y="0"/><use xlink:href="#L1_2" x="-350" y="350"/><use xlink:href="#L1_2" x="0" y="350"/><use xlink:href="#L1_2" x="350" y="350"/></pattern><rect x="0" y="0" width="100%" height="100%" fill="url(#pattern_L1_2)"/></g></svg>